<svg width="160" height="200" viewBox="0 0 160 200" fill="none" xmlns="http://www.w3.org/2000/svg">
<path d="M0.0149097 189.011C-0.170312 183.048 1.44416 177.031 0.769548 171.05C0.664192 170.125 -0.0173236 169.235 0.366715 168.289C0.915583 166.936 2.40594 166.149 3.00069 164.742C3.47819 163.614 3.53257 162.395 3.69061 161.199C3.83335 160.122 5.25384 158.803 4.89869 157.891C4.13911 155.943 6.79504 150.706 7.21986 148.519C7.8265 145.397 7.16041 142.007 8.90898 139.268C10.073 137.443 9.33548 133.627 10.6796 132.447C12.0611 131.236 14.2974 128.607 15.1658 126.974C16.4487 124.563 15.6602 120.746 19.5652 120.389C22.3129 120.139 22.5542 118.032 23.9119 115.66C27.1338 110.029 28.0446 101.299 26.5577 95.0613C25.8712 92.181 24.7396 90.1299 23.1185 87.6949C21.4294 85.1595 21.375 83.1901 20.4455 80.5375C20.0224 79.3276 18.945 78.4151 18.7819 77.1219C18.5814 75.5399 18.8158 74.0751 18.114 72.5865C17.074 70.3775 15.0128 67.5209 18.1123 65.9372C17.2848 66.537 16.6917 67.4615 16.7698 68.5201C17.4291 67.278 18.1548 66.007 19.1659 65.0129C19.9747 64.2176 21.2815 64.2668 21.4225 62.9941C21.7879 59.677 21.1133 56.6337 19.5262 53.7347C17.7402 50.4738 16.8039 47.0565 15.419 43.6223C14.8056 42.0997 14.8532 40.4055 14.4097 38.8388C13.7503 36.5091 11.5955 34.9355 10.3975 32.9065C9.41702 31.2463 5.99983 25.4569 8.97867 24.5359C10.3534 24.1111 11.7723 24.1025 13.1827 23.919C15.1437 23.6624 16.1106 21.9003 18.2789 21.6913C28.2911 20.7295 38.4068 21.8714 48.4717 21.6437C52.2917 21.557 56.2051 21.2529 60.0217 21.3905C63.6072 21.5214 62.8409 23.9666 64.5045 26.2675C65.1978 27.2259 64.5589 30.1266 64.8783 31.4044C65.451 33.7053 66.5777 35.8021 67.4308 37.9993C68.0935 39.702 67.0688 41.1922 68.503 42.7182C70.034 44.3461 70.4282 45.5306 71.3458 47.5119C71.9117 48.7303 74.5473 54.4636 76.2823 53.9844C77.324 53.6973 82.607 54.1035 82.6019 54.0916C82.3301 53.4238 88.2946 51.6989 89.3804 51.9402C92.4357 52.6182 95.2395 52.9768 98.8623 52.9768C98.4205 50.8391 99.7034 48.7388 98.9812 46.6215C100.789 47.009 100.954 45.2791 100.725 43.9622C100.407 42.1388 101.819 39.894 101.19 38.295C104.336 38.295 107.49 38.3562 110.633 38.329C111.573 38.3205 111.022 37.2262 111.789 36.9662C112.881 36.5941 114.144 36.9543 115.262 36.9543C114.562 40.4599 112.647 42.4599 117.104 42.4599C120.999 42.4599 124.929 42.2543 128.819 42.341C132.048 42.4123 131.458 45.6427 130.707 47.8195C130.287 49.0412 129.735 50.2885 129.625 51.5902C129.453 53.6531 131.24 55.7364 131.609 57.7977C132.382 62.1274 130.775 66.9177 130.438 71.2696C130.087 75.8083 131.689 77.5926 134.294 80.9912C136.133 83.3906 137.054 89.6015 136.5 92.5379C136.306 93.5727 135.329 94.2303 134.967 95.2142C134.294 97.0426 136.139 98.798 135.568 100.694C137.149 100.734 138.556 98.4785 139.844 97.7852C140.95 97.1904 144.293 98.0843 145.518 98.4224C147.689 99.0223 150.259 96.5787 152.58 96.6688C154.796 96.7555 157.268 98.1302 158.205 95.1904C159.241 96.6869 159.367 101.445 159.056 103.138C158.625 105.481 158.664 107.817 158.089 110.136C157.397 112.927 159.168 115.473 158.441 118.199C157.707 120.948 155.739 123.19 158.084 125.778C153.263 127.811 146.508 126.832 141.366 126.803C138.788 126.789 135.766 126.168 133.203 126.51C130.949 126.812 132.075 135.2 131.972 137.885C131.699 145.026 132.09 150.067 131.817 155.532C131.545 160.976 131.833 166.525 131.684 171.981C131.531 177.558 135.407 179.048 138.619 183.028C142.045 187.273 145.498 191.533 150.131 194.546C142.558 196.019 134.938 197.307 127.463 199.244C124.484 200.018 123.337 199.263 120.513 198.947C119.252 198.806 118.18 199.411 117.031 199.792C115.165 200.41 113.386 199.501 111.604 199.012C105.262 197.277 98.4715 197.975 92.021 196.967C89.2546 196.536 87.8448 194.141 86.5272 191.988C85.3548 190.073 81.6075 190.863 79.6384 190.955C63.823 191.696 47.5661 190.994 31.7288 190.994C28.4662 190.994 28.1143 190.792 25.3003 188.585C22.471 186.365 20.2352 183.606 16.4249 185.295C13.6142 186.541 10.6986 189.936 7.48848 188.403C3.5543 186.524 2.99257 188.467 0.0149097 189.011Z" fill="white"/>
<path d="M3.80408 9.04022C6.00125 7.31884 8.47375 2.90582 11.3608 2.32637C12.6455 2.06978 12.5301 -0.00678049 13.949 1.66492e-05C15.5412 0.00681378 16.5623 2.53702 17.6193 3.41725C15.0465 5.17941 12.7253 6.7462 10.5027 8.96886C9.41514 10.0547 9.72795 10.0564 10.2224 11.3088C10.9191 13.0744 10.5282 15.1611 10.3668 16.9861C10.1476 19.4637 5.49333 21.4772 5.46104 18.2333C5.44405 16.444 6.40573 16.0242 5.85517 14.0463C5.45074 12.5917 3.23837 10.1448 5.02772 8.80406C4.61989 8.88053 4.21191 8.96035 3.80408 9.04022Z" fill="white"/>
</svg>
