<svg width="171" height="200" viewBox="0 0 171 200" fill="none" xmlns="http://www.w3.org/2000/svg">
<g clip-path="url(#clip0)">
<path d="M149.846 99.3175L148.208 99.9318L148.089 97.8499L147.509 95.4779L146.809 94.4369L145.836 93.669L143.993 92.7304L143.311 92.0478L142.372 91.6553L140.256 92.7987L137.713 92.2014L135.666 90.5291L135.478 89.3004L135.563 88.0205L135 86.8772L134.164 85.8874L132.816 85.2902L131.297 85.1707L129.812 84.6076L128.567 83.6519L127.44 83.1059L125.324 83.5154L123.737 82.7987L120.222 81.6383L124.027 78.3448L124.761 77.9352L126.007 77.5598L126.604 77.082L127.816 74.5052L128.294 70.9386L128.993 69.8635L131.416 69.198L131.672 68.5325L131.587 66.5871L131.894 65.5461L133.191 64.8806L133.635 63.4472L134.778 62.5939L135.648 62.4745L136.16 62.0137L137.594 59.9318L138.601 59.2833L139.061 59.1127L140.887 56.5871L141.98 55.6826L143.276 55.2048L144.027 55.3243L150 58.925L151.621 59.71L152.116 61.7748L152.372 62.1673L153.601 62.4403L155.478 61.8431L156.621 61.7577L157.747 62.1844L159.863 63.5666L161.075 63.925L163.242 63.7373L167.543 62.5427L169.693 62.5598L168.805 64.1468L165.956 67.4403L165.341 68.925L165.802 70.2731L168.072 72.4062L168.976 73.6861L168.481 75.9386L168.805 76.6383L170 77.5256L170.375 78.1741L170.478 79.3516L170.324 80.4949L169.522 82.7134L168.208 84.5734L168.72 87.4233L167.321 89.9147L165.102 91.4164L162.543 91.7065L160.102 90.4949L159.829 91.6041L159.232 92.4233L158.328 92.9352L157.201 93.0717L154.676 94.0274L152.645 95.2902L150.904 96.9113L149.215 98.9591L149.846 99.3175V99.3175Z" fill="white" stroke="white" stroke-width="2" stroke-linecap="round" stroke-linejoin="round"/>
<path d="M124.761 77.9353L124.027 78.3448L120.222 81.6384L119.01 83.4302L109.812 92.594L108.003 93.8568L106.109 94.3687L101.894 94.8124L100.99 95.1537L100.119 95.9216L97.9864 96.1776L97.099 96.553L96.4505 97.2527L96.2116 98.2766L95.4778 99.2151L93.8567 98.7203L92.3038 97.3039L91.7577 95.4438L92.0478 95.1366L93.9591 91.9626L95.2731 90.2561L95.529 88.1571L94.9829 85.9558L93.7202 84.5223L92.2526 83.396L91.1263 82.1332L89.9659 79.3517L89.1468 79.0274L87.0307 78.9762L86.3993 79.4711L86.0068 80.3926L85.4096 80.9216L84.198 80.239L83.5666 79.2663L83.5495 78.3448L84.198 76.3995L85.0683 72.5769L88.7372 71.6725L89.5051 70.0172L91.3823 69.0104L92.9693 67.4745L94.9659 64.3176L98.5836 62.7476L102.116 62.6111L108.123 58.4302L110.802 55.1025L114.795 55.8875L118.601 57.594L120.154 60.8875L120.171 64.5735L118.788 68.379L116.86 71.9626L116.058 74.6418L116.792 75.5462L118.72 76.9797L119.659 77.4404L121.98 76.809L123.242 77.1674L124.761 77.9353V77.9353Z" fill="white" stroke="white" stroke-width="2" stroke-linecap="round" stroke-linejoin="round"/>
<path d="M127.986 129.625L127.884 131.348L128.788 134.334L129.079 135.768L128.771 137.389L124.659 136.041L122.321 137.543L118.788 143.669L113.942 148.635L112.833 150.529L111.229 157.201L109.795 160.665L108.976 160.444L107.747 161.399L105.154 162.782L97.3208 163.089L93.157 165.495L90.7508 168.498L89.2662 169.505L86.9624 166.433L85.3071 165.256L83.6007 164.3L82.6621 162.474L83.4641 159.727L83.686 155.392L84.3003 153.276L83.8566 151.007L86.9112 147.167L86.2628 145.136L85.256 143.703L85.0682 141.928L86.9795 140.358L87.9522 141.365L89.1126 141.433L89.4368 140.119L89.471 138.72L93.6007 134.522L93.8396 132.44L94.9829 130.734L98.0546 129.539L101.075 127.969L102.747 125.836L103.123 123.293L105.341 123.311L107.423 123.942L108.481 125.41L109.573 126.45L114.625 123.549L120.137 125.58L122.321 126.826L124.761 127.56L126.945 129.59L127.986 129.625V129.625Z" fill="white" stroke="white" stroke-width="2" stroke-linecap="round" stroke-linejoin="round"/>
<path d="M149.846 99.3174L152.628 100.836L152.509 103.293L150.102 105.648L145.768 107.662L143.84 109.727L140.751 110.529L140.341 111.758L138.584 111.911L138.362 111.706L136.826 111.945L136.007 113.686L133.447 115.529L132.935 116.638L133.157 118.498L133.123 120.188L132.44 121.911L128.635 127.901L127.986 129.624L126.945 129.59L124.761 127.56L122.321 126.826L120.137 125.58L114.625 123.549L109.573 126.45L108.481 125.409L107.423 123.942L105.341 123.311L103.123 123.293L103.345 120.683L103.174 118.072L102.201 115.973L101.109 112.628L100.427 111.433L100.375 108.976L101.177 103.788L99.6075 101.638L99.3857 100.256L97.099 96.5528L97.9863 96.1774L100.119 95.9214L100.99 95.1535L101.894 94.8122L106.109 94.3686L108.003 93.8566L109.812 92.5938L119.01 83.43L120.222 81.6382L123.737 82.7986L125.324 83.5153L127.44 83.1058L128.567 83.6518L129.812 84.6075L131.297 85.1706L132.816 85.2901L134.164 85.8873L135 86.8771L135.563 88.0204L135.478 89.3003L135.666 90.529L137.713 92.2013L140.256 92.7986L142.372 91.6552L143.311 92.0477L143.993 92.7303L145.836 93.6689L146.809 94.4368L147.509 95.4778L148.089 97.8498L148.208 99.9317L149.846 99.3174V99.3174Z" fill="white" stroke="white" stroke-width="2" stroke-linecap="round" stroke-linejoin="round"/>
<path d="M52.9011 72.9181L51.9454 74.8805L51.6894 76.9966L52.884 79.3515L52.5939 81.9112L51.3311 84.0443L50.6314 86.587L51.4505 88.0375L50.7168 89.3686L49.6075 90.4095L46.9284 88.5665L43.1741 88.7713L41.3823 89.1809L39.727 88.6348L38.0546 88.2935L36.314 88.4471L33.8567 88.9931L31.57 90L28.4812 93.2764L25.2731 92.2013L23.157 89.5563L23.5836 89.1467L22.0137 87.8839L21.3823 86.0751L21.1263 79.9146L21.4335 78.0375L22.1331 76.4846L23.3106 75.8361L23.7202 74.7781L23.6519 74.1638L27.8328 74.0273L30.5802 71.2286L29.8123 69.3515L28.6178 67.8498L28.0376 66.5187L28.5154 65.6996L34.2833 63.3276L35.6656 60L38.7031 59.9829L39.5563 60.785L41.7236 59.1638L44.7782 58.4471L47.0137 56.314L49.3516 59.5051L50.6314 65.1024L51.5529 66.7918L52.6792 69.7781L52.9011 72.9181V72.9181Z" fill="white" stroke="white" stroke-width="2" stroke-linecap="round" stroke-linejoin="round"/>
<path d="M68.3277 123.72L70.9898 123.959L73.4642 124.642L73.6178 126.689L73.0887 128.788L72.0307 135.666L72.116 136.758L71.058 138.601L72.628 140.273L75.1024 138.72L76.9625 136.451L78.157 133.072L78.9761 131.775L81.4164 135.119L80.0853 137.423L83.0717 138.652L85.5461 138.72L86.9795 140.358L85.0683 141.928L85.256 143.703L86.2628 145.137L86.9113 147.167L83.8567 151.007L84.3003 153.276L83.686 155.393L83.4642 159.727L82.6621 162.474L81.3652 163.43L79.8635 164.164L78.4983 163.464L77.8669 161.246L77.9181 157.645L76.7748 154.676L76.8771 152.986L76.7406 151.672L75.4608 152.355L75.0853 154.471L73.413 158.771L69.9317 161.894L66.5358 162.867L63.6519 164.812L60.3925 168.447L55.9898 170.512L53.5666 170.734L50.4266 173.413L48.7543 173.515L47.5768 172.048L47.2184 170.119L47.2014 168.379L46.9283 166.826L45.9727 165.41L45.1536 164.539L43.7543 161.894L41.6894 159.01L41.2287 158.157L41.0922 157.15L41.6894 155.666L41.843 154.676L41.4676 153.72L39.727 151.962L38.942 149.693L37.0478 148.345L36.1775 147.457L35.8021 146.536L35.4949 143.567L32.4232 135.034L32.4915 131.894L40.9044 131.689L42.8669 131.024L44.9488 130.751L46.3993 130.802L47.355 129.812L47.4232 127.509L47.6963 126.416L48.2594 125.444L50.4437 119.317L51.7236 116.894L53.43 115.87L55.2219 115.017L56.7236 117.782L60.6314 122.73L63.0546 124.249L63.7031 126.792L63.6178 130.7L66.1263 127.543L66.5017 126.229L68.3277 123.72V123.72Z" fill="white" stroke="white" stroke-width="2" stroke-linecap="round" stroke-linejoin="round"/>
<path d="M42.372 46.7064L44.0273 48.191L44.2662 50.802L45.4096 53.6177L47.0137 56.3139L44.7782 58.447L41.7236 59.1637L39.5563 60.7849L38.7031 59.9828L35.6655 59.9999L34.2833 63.3276L28.5154 65.6996L28.0376 66.5187L28.6178 67.8497L29.8123 69.3514L30.5802 71.2286L27.8328 74.0272L23.6519 74.1637L23.0205 68.8395L22.1672 67.4743L20.8874 66.4845L19.3174 65.8873L17.6109 65.6825L15.8362 64.9828L15.0341 63.3276L14.6758 61.4163L14.1468 59.9487L12.7474 59.0101L11.0751 58.447L9.65871 57.7132L9.06144 56.2286L8.90786 54.7439L8.53243 53.8224L7.16724 51.8088L6.314 49.3344L5.90444 48.6006L4.52219 47.9863L2.59386 47.8156L0.904443 47.3207L0.170654 45.7678L0.341303 43.8054L0.972702 42.2183L2.13311 41.2115L4.01024 40.9726L2.79864 38.7371L4.38567 29.505L6.46758 27.4402L11.843 27.0989L13.3447 27.3207L18.942 29.761L20.9898 30.3924L24.8976 30.8702L26.843 31.348L28.5324 32.3037L29.6587 33.1398L29.5904 34.6586L29.9317 36.0067L31.9454 37.8839L32.4915 39.0272L32.3038 40.0682L31.0239 41.6381L30.6997 42.6108L30.9215 43.6688L31.7748 45.5972L31.8771 46.7405L32.6963 48.4982L34.9659 48.2934L38.942 46.5699L40.5973 46.3822L42.372 46.7064V46.7064Z" fill="white" stroke="white" stroke-width="2" stroke-linecap="round" stroke-linejoin="round"/>
<path d="M85.0683 72.5767L84.1979 76.3992L83.5495 78.3446L83.5665 79.2661L84.1979 80.2388L85.4095 80.9214L86.0068 80.3924L86.3993 79.4709L87.0307 78.976L89.1468 79.0272L89.9659 79.3514L91.1263 82.133L92.2526 83.3958L93.7201 84.5221L94.9829 85.9555L95.529 88.1569L95.273 90.2559L93.959 91.9624L92.0478 95.1364L91.7577 95.4436L92.3038 97.3037L93.8567 98.72L95.4778 99.2149L96.2116 98.2764L96.4505 97.2525L97.099 96.5528L99.3857 100.256L99.6075 101.638L101.177 103.788L100.375 108.976L100.427 111.433L101.109 112.628L102.201 115.973L103.174 118.072L103.345 120.682L103.123 123.293L102.747 125.836L101.075 127.969L98.0546 129.539L94.9829 130.734L93.8396 132.44L93.6007 134.522L89.471 138.72L89.4369 140.119L89.1126 141.433L87.9522 141.365L86.9795 140.358L85.5461 138.72L83.0717 138.652L80.0853 137.423L81.4164 135.119L78.9761 131.775L78.157 133.072L76.9624 136.45L75.1024 138.72L72.628 140.273L71.058 138.601L72.116 136.758L72.0307 135.665L73.0887 128.788L73.6177 126.689L73.4641 124.642L70.9897 123.959L68.3276 123.72L71.6553 121.314L75.9727 121.826L75.7167 119.949L74.9659 118.14L73.7884 116.297L72.372 114.846L77.4232 111.723L81.5188 108.549L81.9454 106.723L82.0136 104.88L82.4061 103.328L83.1741 101.809L81.8942 99.1808L79.1467 97.4402L78.7031 93.6176L74.8805 91.3139L77.2525 88.0545L81.2116 86.075L79.6928 85.3583L78.3276 84.3173L77.5256 82.5596L76.5017 81.1091L77.9181 80.6484L78.8908 79.505L78.2082 74.505L82.3379 69.9316L83.2252 70.0852L84.7611 70.819L85.0683 72.5767V72.5767Z" fill="white" stroke="white" stroke-width="2" stroke-linecap="round" stroke-linejoin="round"/>
<path d="M60.1195 45.29L60.5631 49.9658L57.1672 52.4572L58.2765 53.0374L59.3174 52.7303L61.2799 54.5733L63.4471 54.3685L64.4539 55.0682L67.8157 55.9214L69.6928 55.017L71.5358 54.9316L73.4471 55.7849L74.471 58.9078L75.3242 63.1228L78.6519 63.5323L79.9488 64.3856L81.3652 64.7951L82.3208 65.4607L81.9966 66.6893L81.9113 68.3446L82.3379 69.9316L78.2082 74.505L78.8908 79.505L77.9181 80.6484L76.5017 81.1091L74.3003 81.6893L72.0648 82.0647L70.9727 82.7473L69.6075 83.0374L67.9352 82.1501L66.9966 80.4777L67.1502 79.0784L66.6041 78.1057L64.2833 79.0613L62.2014 79.3002L61.9795 75.5289L60.8191 74.6927L59.4027 75.1364L58.4471 74.6074L57.5939 73.5835L55.3413 73.5323L52.901 72.918L52.6792 69.7781L51.5529 66.7917L50.6314 65.1023L49.3515 59.505L47.0137 56.3139L45.4096 53.6177L44.2662 50.802L44.0273 48.191L42.372 46.7064L45.7167 47.3378L47.8669 48.5494L49.6075 47.9521L51.3311 46.86L53.3618 46.5869L54.3174 46.6211L55.7338 45.9214L58.4812 44.9316L60.1195 45.29V45.29Z" fill="white" stroke="white" stroke-width="2" stroke-linecap="round" stroke-linejoin="round"/>
<path d="M82.6621 162.474L83.6007 164.3L85.3072 165.256L86.9625 166.433L89.2662 169.505L90.7509 168.498L93.157 165.495L97.3208 163.089L105.154 162.782L107.747 161.399L108.976 160.444L109.795 160.666L109.556 161.246L107.389 165L104.608 168.396L98.3276 173.635L97.372 175L95.0171 180.648L93.8567 182.116L91.8089 183.276L90.8703 184.027L87.7133 185.836L84.4027 188.942L79.5051 191.246L78.7031 191.519L77.1502 191.263L76.1604 190.751L75.1707 190.631L73.6689 191.553L73.3106 193.379L72.8328 194.181L71.2628 194.915L70.6826 195.461L70.3413 196.775L70.0171 199.01L68.942 199.829L68.5324 199.659L64.7611 199.369L61.7065 198.652L61.9283 195.853L61.7236 193.891L60.529 192.065L57.2696 188.993L55.9044 187.44L52.4403 181.604L51.6553 179.505L51.3481 177.474L50.8362 175.529L49.727 174.283L48.7543 173.515L50.4266 173.413L53.5666 170.734L55.9898 170.512L60.3925 168.447L63.6519 164.812L66.5358 162.867L69.9317 161.894L73.413 158.771L75.0853 154.471L75.4608 152.355L76.7406 151.672L76.8771 152.986L76.7747 154.676L77.9181 157.645L77.8669 161.246L78.4983 163.464L79.8635 164.164L81.3652 163.43L82.6621 162.474V162.474Z" fill="white" stroke="white" stroke-width="2" stroke-linecap="round" stroke-linejoin="round"/>
<path d="M100.785 44.3005L103.089 45.495L104.573 47.9353L103.225 50.8193L101.177 53.7373L103.311 54.8466L105.427 52.9865L106.741 51.6042L108.311 51.809L109.488 52.4745L110.836 52.4916L110.802 55.1025L108.123 58.4302L102.116 62.6111L98.5836 62.7476L94.9659 64.3176L92.9693 67.4745L91.3823 69.0104L89.5051 70.0172L88.7372 71.6725L85.0683 72.5769L84.7611 70.8193L83.2253 70.0855L82.3379 69.9319L81.9113 68.3449L81.9966 66.6896L82.3208 65.4609L81.3652 64.7954L79.9488 64.3858L78.6519 63.5326L75.3242 63.123L74.471 58.908L73.4471 55.7851L71.5358 54.9319L69.6928 55.0172L67.8157 55.9216L64.4539 55.0684L63.4471 54.3687L61.2799 54.5735L59.3174 52.7305L58.2765 53.0377L57.1672 52.4575L60.5631 49.966L60.1195 45.2902L63.959 46.553L65.6997 46.8261L67.7645 46.5701L68.6519 46.024L69.0614 45.1708L69.3515 43.2254L70.0512 42.3722L71.1092 42.3551L73.157 42.9694L75.4608 43.0377L77.3208 42.6964L79.0444 41.6725L80.9386 39.7442L82.1672 38.0718L83.2935 36.1776L84.1638 34.164L84.6587 32.1162L84.7099 31.0923L87.116 31.4336L91.6041 32.6281L94.3686 36.0411L95.6143 38.3619L97.5085 39.9831L100.785 44.3005V44.3005Z" fill="white" stroke="white" stroke-width="2" stroke-linecap="round" stroke-linejoin="round"/>
<path d="M125.734 1.94527L127.747 3.51524L128.686 7.03059L129.386 7.79851L129.915 8.89066L130 10.2558L130.529 11.3821L131.911 12.6791L132.816 14.3685L131.502 18.2593L132.218 19.8122L132.884 21.7064L132.611 23.6347L131.911 25.4265L130.051 26.4504L128.072 26.6893L126.024 29.2149L119.403 35.0681L118.106 34.4879L117.167 34.8463L115.136 36.0067L113.242 37.406L110.802 37.8838L108.737 38.7371L107.355 40.3924L106.792 42.3889L104.471 43.6176L100.785 44.3002L97.5085 39.9828L95.6143 38.3616L94.3686 36.0408L91.6041 32.6279L87.116 31.4333L84.7099 31.092L85.0853 21.621L87.0819 14.6415L86.4334 7.54254L87.0307 2.81558L87.2867 1.45039L88.2252 1.41626L88.959 1.84288L91.3822 3.92479L93.7542 3.97599L94.8122 4.35141L95.9385 5.22172L98.7884 8.60056L100.307 9.93161L102.235 11.2115L104.351 12.0306L106.416 11.9623L107.986 10.8702L112.15 5.64834L112.389 4.12957L112.713 3.51524L113.788 3.61762L116.672 5.01694L117.816 5.27291L119.3 5.20465L121.058 4.84629L122.799 4.28315L124.113 3.60056L125.734 1.94527V1.94527Z" fill="white" stroke="white" stroke-width="2" stroke-linecap="round" stroke-linejoin="round"/>
<path d="M138.601 59.2833L137.594 59.9317L136.16 62.0137L135.648 62.4744L134.778 62.5939L133.635 63.4471L133.191 64.8806L131.894 65.5461L131.587 66.587L131.672 68.5324L131.416 69.198L128.993 69.8635L128.294 70.9386L127.816 74.5051L126.604 77.0819L126.007 77.5597L124.761 77.9352L123.242 77.1672L121.98 76.8089L119.659 77.4403L118.72 76.9795L116.792 75.5461L116.058 74.6416L116.86 71.9625L118.788 68.3788L120.171 64.5734L120.154 60.8874L118.601 57.5939L114.795 55.8874L110.802 55.1024L110.836 52.4915L109.488 52.4744L108.311 51.8089L106.741 51.6041L105.427 52.9864L103.311 54.8464L101.177 53.7372L103.225 50.8191L104.573 47.9352L103.089 45.4949L100.785 44.3003L104.471 43.6178L106.792 42.3891L107.355 40.3925L108.737 38.7372L110.802 37.884L113.242 37.4061L115.137 36.0068L117.167 34.8464L118.106 34.4881L119.403 35.0683L126.024 29.215L128.072 26.6894L130.051 26.4505L131.911 25.4266L132.611 23.6348L132.884 21.7065L132.218 19.8123L131.502 18.2594L132.816 14.3686L131.911 12.6792L130.529 11.3823L130 10.256L129.915 8.89079L129.386 7.79864L128.686 7.03072L127.747 3.51536L125.734 1.9454L127.014 0.61434L128.498 0.170654L128.942 0.392497L131.86 1.09216L132.611 1.48465L133.089 2.78158L133.618 3.51536L138.618 7.62799L141.689 9.06144L144.727 9.18089L141.672 13.0205L140.427 14.9829L136.928 23.4983L136.177 26.4335L135.785 27.4061L134.898 28.5666L132.696 30.6485L131.945 31.7918L131.587 34.0785L132.611 35.0683L134.403 35.0853L136.348 34.4369L139.642 32.9352L141.758 32.1502L141.177 33.8908L135.87 39.471L135.119 40.6826L134.829 42.116L134.795 44.471L132.782 47.1843L131.724 49.2321L131.928 50.8362L134.232 53.8225L135.631 55.1365L137.304 55.5973L136.894 56.6041L138.225 58.1399L138.601 59.2833V59.2833Z" fill="white" stroke="white" stroke-width="2" stroke-linecap="round" stroke-linejoin="round"/>
<path d="M32.7645 116.416L33.0205 101.809L31.7236 98.0034L29.744 96.6723L30.529 96.1774L32.1502 94.7099L33.8225 93.4812L35.9386 93.1399L37.4062 93.2082L38.9591 94.5563L39.4027 96.2286L39.3004 98.686L38.7713 100.887L37.2014 106.365L36.2116 113.072L34.5393 114.983L32.7645 116.416V116.416Z" fill="white" stroke="white" stroke-width="2" stroke-linecap="round" stroke-linejoin="round"/>
<path d="M76.5017 81.1091L77.5256 82.5596L78.3276 84.3173L79.6928 85.3582L81.2116 86.075L77.2526 88.0545L74.8805 91.3139L78.7031 93.6176L79.1468 97.4402L76.9113 98.3446L70.1707 99.5903L66.5358 99.5221L63.8225 100.068L62.0137 101.28L61.2457 101.365L60.7338 100.529L59.3857 99.8122L57.5085 100.324L56.0068 101.416L55.1024 100.324L53.5154 101.689L52.5768 100.034L51.843 98.0374L50.9215 96.2968L50.9898 94.4538L49.6075 90.4094L50.7167 89.3685L51.4505 88.0374L50.6314 86.5869L51.3311 84.0443L52.5939 81.9111L52.884 79.3514L51.6894 76.9965L51.9454 74.8804L52.901 72.918L55.3413 73.5323L57.5939 73.5835L58.4471 74.6074L59.4027 75.1364L60.8191 74.6927L61.9795 75.5289L62.2014 79.3002L64.2833 79.0613L66.6041 78.1057L67.1502 79.0784L66.9966 80.4777L67.9352 82.1501L69.6075 83.0374L70.9727 82.7473L72.0648 82.0647L74.3003 81.6893L76.5017 81.1091V81.1091Z" fill="white" stroke="white" stroke-width="2" stroke-linecap="round" stroke-linejoin="round"/>
<path d="M49.6075 90.4097L50.9898 94.4541L50.9215 96.2971L51.843 98.0377L52.5768 100.034L53.5154 101.69L55.1024 100.324L56.0068 101.417L55.8362 103.106L57.099 107.389L55.9556 110.734L56.0409 112.969L55.2218 115.017L53.43 115.87L51.7235 116.894L50.4437 119.318L48.2594 125.444L47.6962 126.417L47.4232 127.509L47.3549 129.812L46.3993 130.802L44.9488 130.751L42.8669 131.024L40.9044 131.69L32.4915 131.894L32.7645 116.417L34.5393 114.983L36.2116 113.072L37.2014 106.365L38.7713 100.888L39.3003 98.6862L39.4027 96.2289L38.959 94.5565L37.4061 93.2084L35.9386 93.1401L33.8225 93.4814L32.1502 94.7101L30.529 96.1777L29.744 96.6725L28.7372 96.007L24.727 95.3073L20.4437 95.4439L20.6314 92.7476L21.0239 91.519L23.157 89.5565L25.273 92.2015L28.4812 93.2766L31.57 90.0002L33.8567 88.9934L36.314 88.4473L38.0546 88.2937L39.727 88.635L41.3823 89.1811L43.1741 88.7715L46.9283 88.5667L49.6075 90.4097V90.4097Z" fill="white" stroke="white" stroke-width="2" stroke-linecap="round" stroke-linejoin="round"/>
<path d="M68.3276 123.72L66.5017 126.229L66.1263 127.543L63.6177 130.7L63.7031 126.792L63.0546 124.249L60.6314 122.73L56.7236 117.781L55.2218 115.017L56.041 112.969L55.9556 110.734L57.099 107.389L55.8362 103.106L56.0068 101.416L57.5085 100.324L59.3857 99.8122L60.7338 100.529L61.2457 101.365L62.0137 101.28L63.8225 100.068L66.5358 99.5221L70.1707 99.5904L76.9113 98.3446L79.1468 97.4402L81.8942 99.1808L83.1741 101.809L82.4061 103.328L82.0137 104.88L81.9454 106.723L81.5188 108.549L77.4232 111.723L72.372 114.846L73.7884 116.297L74.9659 118.14L75.7167 119.949L75.9727 121.826L71.6553 121.314L68.3276 123.72V123.72Z" fill="white" stroke="white" stroke-width="2" stroke-linecap="round" stroke-linejoin="round"/>
</g>
<defs>
<clipPath id="clip0">
<rect width="170.648" height="200" fill="white"/>
</clipPath>
</defs>
</svg>
