<?xml version="1.0" standalone="no"?>
<!DOCTYPE svg PUBLIC "-//W3C//DTD SVG 20010904//EN"
 "http://www.w3.org/TR/2001/REC-SVG-20010904/DTD/svg10.dtd">
<svg version="1.0" xmlns="http://www.w3.org/2000/svg"
 width="1856.000000pt" height="1856.000000pt" viewBox="0 0 1856.000000 1856.000000"
 preserveAspectRatio="xMidYMid meet">
<metadata>
Created by potrace 1.11, written by Peter Selinger 2001-2013
</metadata>
<g transform="translate(0.000000,1856.000000) scale(0.100000,-0.100000)"
fill="#000000" stroke="none">
<path d="M191 12840 c-4 -3 -7 -1668 -6 -3700 l0 -3695 2335 -3 2335 -2 0 545
c-1 299 -4 547 -7 550 -4 4 -743 8 -1644 8 l-1637 2 -1 1027 c-1 565 1 1035 4
1045 5 18 55 18 1295 19 1002 0 1289 3 1288 12 -2 7 2 12 8 12 5 0 7 5 3 12
-11 17 -11 198 0 198 5 0 4 6 -1 13 -11 15 -11 187 0 205 5 6 4 12 0 12 -10 0
-10 131 1 148 4 6 3 12 -3 12 -7 0 -7 8 -2 23 5 13 6 28 3 34 -4 6 -6 40 -4
75 1 34 2 70 2 78 0 8 -1 62 -2 120 l-1 105 -1294 0 c-864 0 -1294 3 -1296 10
-1 5 -2 467 -1 1025 l1 1015 1637 2 c901 0 1640 4 1644 7 3 4 6 251 6 549 l0
541 -2328 1 c-1280 0 -2331 -2 -2335 -5z"/>
<path d="M6082 12835 c-4 -5 -7 -1672 -7 -3702 l-1 -3693 2336 0 2335 0 0 550
0 550 -120 1 c-66 0 -799 0 -1630 0 -830 0 -1517 2 -1525 4 -13 4 -15 126 -14
1022 1 560 2 1029 3 1043 l1 25 1293 0 1292 0 1 528 c1 290 -1 528 -5 528 -3
1 -582 2 -1286 3 -704 1 -1284 4 -1290 8 -7 4 -10 356 -9 1025 l0 1018 1635 2
c898 1 1639 2 1644 2 12 1 14 1076 2 1088 -12 12 -4648 10 -4655 -2z"/>
<path d="M11966 12840 c-1 -3 -2 -1668 -2 -3700 l1 -3695 1540 0 c1370 0 1653
3 1785 21 19 3 53 7 75 9 57 6 112 14 175 25 30 5 69 12 87 15 18 3 63 12 100
21 37 8 75 16 83 18 34 6 248 64 270 73 8 3 22 7 31 9 9 2 29 9 45 15 16 7 34
13 41 15 94 19 601 257 664 310 8 8 19 14 23 14 17 0 316 210 316 222 0 4 5 8
11 8 11 0 87 62 183 150 396 361 695 808 896 1340 39 104 98 281 100 300 0 3
9 37 19 75 29 106 60 256 76 370 3 17 7 39 9 50 2 11 7 49 11 85 4 36 9 79 11
95 21 151 24 895 4 895 -3 0 -6 8 -6 18 -1 36 -15 162 -19 174 -2 7 -6 31 -9
53 -3 22 -7 49 -9 60 -8 35 -19 99 -22 120 -2 11 -13 61 -25 110 -12 50 -23
97 -25 105 -2 8 -4 15 -5 15 -1 0 -3 9 -5 20 -2 11 -23 79 -46 150 -24 72 -43
132 -44 135 -2 6 -22 58 -32 80 -3 8 -7 18 -7 21 -4 23 -194 420 -205 429 -4
3 -13 20 -20 38 -8 17 -17 32 -22 32 -5 0 -9 5 -9 11 0 19 -213 334 -250 369
-3 3 -27 32 -55 65 -152 182 -353 372 -550 521 -81 62 -262 184 -272 184 -3 0
-17 8 -31 19 -89 61 -330 178 -527 255 -60 24 -119 47 -130 51 -11 4 -24 9
-30 10 -5 2 -46 15 -90 30 -44 15 -87 28 -96 30 -8 2 -39 10 -67 19 -29 8 -52
13 -52 10 0 -3 -8 0 -17 5 -10 5 -31 12 -48 15 -16 3 -52 10 -80 16 -50 11
-173 33 -250 45 -121 19 -292 36 -400 40 -38 2 -70 4 -70 5 0 5 -3027 5 -3029
0z m3079 -1103 c28 -3 75 -8 105 -12 30 -3 78 -9 105 -15 28 -5 64 -11 80 -14
17 -3 40 -7 53 -10 12 -3 30 -8 40 -10 135 -30 297 -89 447 -162 232 -113 386
-223 564 -404 78 -79 190 -213 218 -261 10 -16 21 -29 25 -29 4 0 8 -7 8 -15
0 -8 5 -15 10 -15 6 0 10 -5 10 -10 0 -6 12 -29 27 -53 90 -143 214 -432 258
-602 5 -16 9 -34 11 -40 5 -15 25 -97 29 -118 2 -9 6 -21 9 -26 3 -5 8 -29 10
-55 3 -26 7 -50 10 -54 5 -8 16 -73 21 -122 2 -19 6 -50 9 -68 6 -31 9 -59 23
-232 14 -186 3 -609 -21 -760 -3 -19 -8 -53 -10 -75 -3 -22 -7 -50 -10 -61 -2
-12 -7 -37 -10 -55 -3 -19 -8 -45 -11 -59 -3 -14 -7 -36 -10 -50 -3 -14 -9
-40 -14 -57 -5 -18 -7 -33 -5 -33 3 0 2 -6 -3 -12 -4 -7 -8 -17 -10 -23 -1 -5
-4 -21 -7 -34 -9 -38 -66 -208 -98 -291 -29 -75 -137 -301 -149 -310 -3 -3 -9
-12 -13 -20 -40 -85 -194 -287 -302 -395 -131 -132 -320 -278 -440 -340 -22
-11 -42 -24 -45 -28 -3 -5 -9 -8 -13 -8 -3 1 -30 -11 -59 -26 -28 -15 -54 -27
-57 -28 -3 0 -39 -15 -81 -33 -70 -29 -218 -79 -258 -87 -9 -2 -45 -11 -81
-20 -80 -21 -72 -19 -212 -41 -16 -2 -40 -6 -55 -8 -89 -15 -330 -19 -1020
-20 -679 -1 -772 1 -775 14 -3 13 -2 5115 1 5177 l1 21 823 -2 c452 -2 845 -6
872 -9z"/>
</g>
</svg>
