<svg width="45" height="30" viewBox="0 0 45 30" fill="none" xmlns="http://www.w3.org/2000/svg">
<g clip-path="url(#clip0)">
<path fill-rule="evenodd" clip-rule="evenodd" d="M0.0194625 15.0295C0.008775 15.0405 0 18.4176 0 22.5342V30.0189H22.5H45V22.5142V15.0095H36.4791H27.9582L27.9703 15.6536L27.9825 16.2979L27.7087 16.3066L27.4351 16.3152L27.3999 16.6305C27.3807 16.8039 27.3467 17.0363 27.3244 17.147C27.2766 17.3857 27.2745 17.3813 27.4789 17.4518C27.5672 17.4822 27.6969 17.5285 27.7671 17.5545L27.8948 17.6021L27.8779 17.7541C27.8333 18.158 27.2651 19.3321 27.1143 19.3321C27.0908 19.3321 26.9833 19.2714 26.8756 19.1971C26.6277 19.0263 26.6302 19.0258 26.5279 19.2484C26.3563 19.622 25.8447 20.3228 25.7438 20.3228C25.6737 20.3228 25.056 19.9708 24.8564 19.8171L24.7599 19.7428L24.8883 19.6051C25.2904 19.1729 25.7932 18.3502 25.9746 17.8272C26.2345 17.0776 26.3041 16.7773 26.3558 16.1802C26.3936 15.7423 26.3922 15.2787 26.3523 15.077L26.3389 15.0095H21.8569C19.098 15.0095 17.3751 15.0202 17.3751 15.0374C17.3751 15.0932 17.7225 15.5131 18.0353 15.8356C18.9718 16.8011 19.8147 17.3976 21.3465 18.1788C23.7945 19.4274 25.0398 20.0555 25.6099 20.3294C25.7465 20.395 25.9568 20.4961 26.0773 20.5542C26.3686 20.6948 26.6004 20.8058 26.8657 20.9319C28.2597 21.5943 28.2858 21.612 28.2557 21.8771C28.2125 22.2572 28.0996 22.4672 27.8161 22.6943C27.5375 22.9173 27.3899 22.8938 26.5006 22.4838C26.4685 22.469 26.1269 22.3207 25.7413 22.1543C25.3559 21.9878 25.0143 21.8394 24.9822 21.8244C24.95 21.8093 24.858 21.7685 24.7778 21.7337C24.6975 21.6989 24.6054 21.6584 24.5734 21.6437C24.5412 21.629 24.3966 21.5674 24.2521 21.5069C24.1075 21.4463 23.9066 21.3577 23.8054 21.3101C23.7043 21.2624 23.6141 21.2233 23.6048 21.2233C23.5892 21.2233 23.3288 21.1064 22.9672 20.9371C22.8869 20.8995 22.7555 20.8392 22.6752 20.8031C22.595 20.767 22.4636 20.7065 22.3832 20.6687C22.1225 20.5459 21.9215 20.4537 21.624 20.3204C21.2392 20.1478 19.9632 19.4827 19.8426 19.3918C19.8265 19.3797 19.728 19.3227 19.6236 19.265C19.2719 19.0708 19.1133 18.9805 18.9531 18.883C18.8653 18.8295 18.7111 18.7393 18.6103 18.6823C18.5095 18.6254 18.2922 18.4943 18.1273 18.391C17.9625 18.2878 17.7949 18.1838 17.7548 18.1598C17.7146 18.136 17.6338 18.0792 17.5753 18.0339C17.5168 17.9884 17.4601 17.9513 17.4494 17.9513C17.4387 17.9513 17.3224 17.8678 17.1909 17.7658C16.1446 16.9542 15.8208 16.3705 15.8656 15.3772L15.8822 15.0095H7.96061C3.60371 15.0095 0.03015 15.0185 0.0194625 15.0295ZM19.1856 17.9928C19.1856 18.0358 19.3635 18.2143 19.4825 18.2905C19.52 18.3144 19.6452 18.3966 19.7607 18.4729C19.8764 18.5492 19.9781 18.6117 19.9867 18.6117C19.9954 18.6117 20.1439 18.6965 20.3168 18.8003C20.4896 18.9039 20.6837 19.0175 20.7479 19.0524C20.8122 19.0874 20.9172 19.1462 20.9815 19.1832C21.2743 19.3513 21.461 19.451 22.0474 19.7525C22.6435 20.0591 22.7904 20.1319 23.252 20.3499C23.3604 20.401 23.5378 20.4849 23.6461 20.5364C23.8171 20.6176 24.012 20.7075 24.2229 20.803C24.255 20.8174 24.3709 20.8707 24.4804 20.9213C24.59 20.9718 24.6849 21.0132 24.6913 21.0132C24.7013 21.0132 24.7963 21.0552 25.099 21.1934C25.131 21.2081 25.2231 21.2485 25.3034 21.2834C25.3837 21.3182 25.4756 21.3588 25.5078 21.3734C25.5399 21.3881 25.6844 21.4495 25.829 21.5099C25.9735 21.5703 26.1181 21.6311 26.1502 21.6451C26.1823 21.6591 26.3861 21.7462 26.6029 21.8387C26.8197 21.9313 27.0234 22.0191 27.0555 22.0338C27.0876 22.0486 27.1862 22.0898 27.2745 22.1254C27.3628 22.161 27.4614 22.202 27.4935 22.2164C27.6114 22.2696 27.7126 22.3021 27.7126 22.2871C27.7126 22.2712 27.1143 21.9738 27.0825 21.9738C27.0728 21.9738 26.9797 21.9333 26.8757 21.8838C26.7715 21.8342 26.6811 21.7937 26.6744 21.7937C26.6679 21.7937 26.5605 21.7457 26.4356 21.6871C26.3107 21.6283 26.1823 21.5685 26.1502 21.5541C26.1181 21.5396 25.9888 21.4796 25.863 21.4206C25.737 21.3617 25.6299 21.3134 25.6249 21.3134C25.6117 21.3134 25.161 21.0971 24.7048 20.8718C24.4879 20.7647 24.1594 20.6024 23.9746 20.5113C22.7308 19.8973 21.0824 19.0627 21.0545 19.0326C21.0465 19.0241 20.9873 18.9903 20.9231 18.9576C20.4738 18.7292 19.3878 18.0944 19.2709 17.9918C19.2121 17.9401 19.1856 17.9404 19.1856 17.9928ZM15.7956 20.1727C16.297 20.5608 16.881 20.8719 17.5211 21.0918C17.6416 21.1332 17.7663 21.1788 17.7985 21.193C17.8496 21.2158 18.0445 21.275 18.3971 21.375C18.587 21.4287 18.7612 21.4683 18.9886 21.5093C19.1133 21.5319 19.2262 21.5573 19.2397 21.5659C19.3516 21.6369 20.6659 21.6899 21.1192 21.6418C22.0751 21.5401 22.3795 21.4646 22.9133 21.1966L23.1393 21.0833L23.4037 21.2151C24.4484 21.736 24.4257 21.7176 24.1782 21.8392C23.934 21.9591 23.9341 21.959 24.034 22.2114C24.1344 22.4651 24.1396 22.5179 24.0696 22.581C23.9228 22.7136 23.1176 23.0343 22.583 23.173C22.4911 23.197 22.4905 23.1964 22.3504 22.9306C22.2731 22.7841 22.1997 22.6643 22.1874 22.6643C22.175 22.6643 22.0957 22.6918 22.0112 22.7254C21.7705 22.8212 21.3379 22.8986 20.9166 22.9213C20.4765 22.945 20.514 22.9146 20.4834 23.2725C20.4595 23.5529 20.4672 23.5489 20.0103 23.5252C19.7286 23.5106 19.5515 23.4911 18.7329 23.3847C18.3968 23.341 18.3787 23.3177 18.4535 23.0244C18.4682 22.9667 18.4889 22.8371 18.4995 22.7364L18.5186 22.5533L18.3068 22.5331C18.1902 22.5218 18.0808 22.5011 18.0634 22.4869C18.0462 22.4726 17.9764 22.4515 17.9082 22.44C17.84 22.4284 17.7768 22.4065 17.7677 22.3915C17.7587 22.3765 17.7286 22.3641 17.7011 22.3641C17.6735 22.3641 17.5334 22.3044 17.3896 22.2314C17.0839 22.0762 17.1188 22.0665 16.9614 22.3509C16.7964 22.649 16.7845 22.6516 16.3718 22.4749C16.0578 22.3405 15.2276 21.891 15.2204 21.8515C15.2156 21.8255 15.2595 21.6995 15.3178 21.5716C15.4319 21.3212 15.4275 21.2937 15.2635 21.2366C15.1404 21.1937 14.7177 20.8692 14.7177 20.8176C14.7177 20.7949 15.0678 20.2457 15.2678 19.9548L15.366 19.812L15.5128 19.9398C15.5937 20.0101 15.7209 20.115 15.7956 20.1727ZM28.7997 21.9251C29.6904 22.2717 31.2117 23.3263 31.6153 23.8768C32.1221 24.5683 32.0553 25.5014 31.4773 25.8024C31.2932 25.8983 31.2708 25.8864 31.0373 25.568C30.7757 25.2116 30.482 24.9252 29.9061 24.4654C29.6269 24.2426 29.3182 23.9926 29.2198 23.9101C29.0208 23.7428 28.7787 23.5649 28.7503 23.5649C28.7401 23.5649 28.6116 23.4823 28.4646 23.3814C28.3177 23.2806 28.1278 23.1706 28.0426 23.1371C27.8525 23.0624 27.8524 23.0525 28.0366 22.8314C28.3265 22.4832 28.493 22.1911 28.521 21.9813C28.5411 21.8315 28.5531 21.8291 28.7997 21.9251ZM28.7129 22.5451C28.5529 22.6112 28.497 22.8149 28.5969 22.9675C28.7831 23.2519 29.2602 23.149 29.2602 22.8244C29.2602 22.5695 28.9889 22.4309 28.7129 22.5451ZM29.874 23.2665C29.5085 23.4247 29.6766 23.8979 30.0841 23.8577C30.3748 23.8289 30.4985 23.5601 30.3171 23.3514C30.2259 23.2465 30.014 23.2059 29.874 23.2665ZM30.8594 24.1521C30.5299 24.336 30.7607 24.7964 31.1452 24.7223C31.5524 24.6437 31.4926 24.1027 31.077 24.1063C31.0013 24.107 30.9033 24.1276 30.8594 24.1521Z" fill="#040404"/>
<path fill-rule="evenodd" clip-rule="evenodd" d="M20.0811 6.95442C20.0705 6.9654 20.0617 7.07203 20.0617 7.19138C20.0617 7.45275 20.0828 7.44176 19.6473 7.40568C19.3138 7.37792 18.8519 7.397 18.782 7.44141C18.7552 7.45841 18.7541 7.53058 18.7774 7.74695C18.7941 7.90262 18.8211 8.16502 18.8373 8.33005C18.8741 8.70533 18.7914 8.66751 19.609 8.68359C21.3291 8.7177 23.0562 9.54135 24.5016 11.017C25.0781 11.6055 26.0188 13.0325 26.0188 13.3185C26.0188 13.3272 26.0378 13.3769 26.0611 13.429C26.1586 13.6475 26.2968 14.298 26.3429 14.7563C26.4732 16.0501 26.3455 16.9714 25.8834 18.0714C25.8125 18.2403 25.7427 18.3855 25.7247 18.4016C25.7155 18.4099 25.6988 18.442 25.6877 18.473C25.6447 18.5925 25.1493 19.3209 24.9752 19.5203C24.8747 19.6356 24.7923 19.7405 24.7923 19.7533C24.7923 19.7749 25.4036 20.1512 25.6412 20.276L25.7455 20.3307L25.904 20.1573C26.1227 19.9182 26.111 19.9323 26.2087 19.7885C26.3163 19.6294 26.373 19.5304 26.5084 19.265C26.6279 19.0306 26.6649 19.0215 26.864 19.1776C27.0564 19.3284 27.1225 19.3513 27.1742 19.2849C27.3992 18.9957 27.6181 18.5553 27.7971 18.0315C27.9173 17.6798 27.9168 17.6025 27.7938 17.5747C27.7422 17.563 27.6797 17.5425 27.6551 17.5289C27.6305 17.5154 27.5404 17.4819 27.455 17.4546C27.2745 17.3967 27.2555 17.3642 27.3009 17.1924C27.3319 17.0756 27.3647 16.8557 27.4105 16.4579L27.4286 16.3003H27.7057H27.9828L27.9665 15.7075C27.9449 14.9265 27.9072 14.5282 27.7935 13.8838C27.7508 13.6423 27.7706 13.6499 27.394 13.7321C27.1338 13.7888 27.1863 13.847 26.9998 13.2949C26.9139 13.041 26.8038 12.7388 26.755 12.6235C26.6509 12.3775 26.651 12.377 26.8299 12.3522C27.2031 12.3002 27.2031 12.3004 27.0448 11.8404C26.8436 11.2555 26.7248 10.9983 26.4706 10.5968C26.2634 10.2695 26.2528 10.2651 26.1023 10.4449C25.9392 10.6394 25.9794 10.6553 25.5538 10.2285C25.3519 10.0259 25.1078 9.80688 25.0113 9.74165C24.915 9.67654 24.8245 9.61351 24.8103 9.6016C24.7961 9.58981 24.8454 9.50677 24.9199 9.41726C25.0937 9.20805 25.1036 9.23719 24.7545 8.92737C23.8335 8.10974 23.3309 7.82363 23.2427 8.06684C23.1415 8.34647 23.1218 8.35919 22.9726 8.24274C22.7417 8.06244 22.1123 7.77494 21.9485 7.77494C21.855 7.77494 21.855 7.7776 21.9468 7.59141C22.0487 7.38486 22.0371 7.36115 21.7845 7.26031C21.6641 7.2122 21.5393 7.1605 21.5072 7.14547C21.4263 7.10777 21.1356 7.02543 20.9085 6.97581C20.715 6.9336 20.1165 6.9181 20.0811 6.95442ZM18.8931 10.0638C18.8106 10.3321 18.7317 10.5787 18.718 10.6118C18.7043 10.6447 18.6436 10.8373 18.5831 11.0395L18.4733 11.4072L17.5373 11.4083C16.6479 11.4092 16.6043 11.4118 16.6637 11.4608C16.6982 11.4891 16.855 11.6068 17.0121 11.7225C17.3484 11.9696 17.9796 12.4354 18.0568 12.4934C18.1189 12.5401 18.1501 12.4157 17.7956 13.5386C17.6784 13.9101 17.5731 14.2541 17.5616 14.303L17.5408 14.3921L17.6842 14.2814C17.7632 14.2206 18.0577 13.999 18.3387 13.789C18.6198 13.5791 18.887 13.376 18.9323 13.3378C19.0499 13.2391 19.0513 13.2397 19.4553 13.5461C20.2156 14.1229 20.5035 14.3344 20.54 14.3428C20.5712 14.3501 20.2851 13.3671 20.1792 13.1033C20.1234 12.9643 20.0324 12.6442 20.0324 12.5871C20.0324 12.5179 20.0826 12.4766 20.9523 11.8309C21.1129 11.7117 21.2641 11.598 21.2882 11.5783C21.3122 11.5585 21.3714 11.5153 21.4196 11.4823L21.5072 11.4222L20.5739 11.4072L19.6406 11.3922L19.5771 11.1971C19.5423 11.0898 19.4454 10.7791 19.362 10.5067C19.2786 10.2342 19.1991 9.9844 19.1854 9.95132C19.1718 9.91824 19.1388 9.82041 19.1123 9.73367C19.0495 9.52863 19.0654 9.5048 18.8931 10.0638ZM16.5047 13.8081C16.1938 14.0395 15.9725 14.4759 15.9138 14.9732C15.8525 15.4912 15.849 15.593 15.8838 15.8445C16.0119 16.7739 16.5855 17.4383 18.0029 18.2988C18.1636 18.3963 18.2994 18.4864 18.3047 18.4989C18.3101 18.5115 18.3263 18.5218 18.3408 18.5218C18.3554 18.5218 18.5111 18.6095 18.687 18.7169C18.8629 18.8242 19.0144 18.912 19.0238 18.912C19.0331 18.912 19.0898 18.9434 19.1496 18.9819C19.2538 19.0489 19.3326 19.0938 19.9303 19.428C20.0748 19.5088 20.2391 19.602 20.2952 19.6352C20.3515 19.6684 20.6735 19.8346 21.0107 20.0047C21.5556 20.2794 21.6876 20.3432 21.916 20.4423C21.9481 20.4563 22.0598 20.5078 22.1642 20.5567C22.3803 20.6579 22.5755 20.7479 22.7555 20.8292C22.8238 20.86 22.9256 20.9064 22.9818 20.9321C23.0381 20.9579 23.1433 21.0054 23.2155 21.0376C23.2877 21.0697 23.4257 21.1323 23.5221 21.1765C23.6185 21.2206 23.7236 21.269 23.7557 21.2837C23.7878 21.2985 23.9455 21.3661 24.1061 21.434C24.2667 21.502 24.4675 21.5905 24.5522 21.6307C24.6369 21.6709 24.7139 21.7037 24.723 21.7037C24.7322 21.7037 24.7812 21.7232 24.8318 21.7472C24.8823 21.7711 25.0407 21.8398 25.1837 21.8998C25.3267 21.96 25.4646 22.0208 25.4904 22.035C25.5431 22.0644 25.5867 22.0836 26.1357 22.3186C26.3525 22.4115 26.5562 22.4998 26.5883 22.515C26.6204 22.5302 26.719 22.5706 26.8073 22.6048C26.9791 22.6714 27.1293 22.7367 27.2424 22.7939C27.338 22.8423 27.6602 22.8408 27.676 22.7919C27.6828 22.7712 27.7056 22.7544 27.7269 22.7544C27.9813 22.7544 28.3853 21.808 28.2068 21.6299C28.1502 21.5734 27.3083 21.1429 26.7489 20.8845C26.6028 20.8169 26.4128 20.7269 25.9604 20.5108C25.8721 20.4686 25.7021 20.3876 25.5827 20.331C25.2579 20.1767 21.8788 18.4706 21.1129 18.0742C20.4048 17.7077 20.001 17.4629 19.3901 17.0293C18.6202 16.4832 17.6948 15.5701 17.3006 14.9676C17.1969 14.8091 17.0818 14.6053 17.053 14.5292C17.0375 14.488 17.0135 14.434 17 14.4091C16.9864 14.3843 16.9463 14.2628 16.9108 14.1389C16.7786 13.6775 16.7316 13.6391 16.5047 13.8081ZM19.4007 18.0619C19.4993 18.1229 19.6192 18.202 19.6675 18.238C19.7156 18.2739 19.847 18.3542 19.9594 18.4164C20.0719 18.4786 20.2181 18.5619 20.2844 18.6014C20.6053 18.7926 22.6724 19.8625 23.6097 20.3223C23.7863 20.409 24.0623 20.5446 24.2229 20.6237C25.1043 21.0575 25.6968 21.3435 25.7138 21.3435C25.7198 21.3435 25.8512 21.4043 26.0058 21.4787C26.1605 21.5529 26.2932 21.6137 26.3006 21.6137C26.308 21.6137 26.3694 21.6396 26.4371 21.6713C26.5048 21.703 26.7767 21.8257 27.0414 21.944C27.4376 22.121 27.6884 22.2424 27.7685 22.2959C27.8116 22.3248 27.7292 22.3379 27.676 22.3106C27.6399 22.2922 27.4789 22.2217 27.3183 22.154C27.1577 22.0864 27 22.0185 26.9678 22.0032C26.9358 21.9881 26.8372 21.9478 26.7489 21.9138C26.6605 21.8799 26.5619 21.8399 26.5299 21.825C26.4385 21.7826 26.3042 21.7239 25.7706 21.4941C25.4976 21.3765 25.2479 21.2682 25.2158 21.2535C25.1837 21.2388 25.0917 21.1982 25.0113 21.1634C24.931 21.1286 24.8391 21.0881 24.8069 21.0733C24.7749 21.0586 24.6828 21.018 24.6025 20.9831C24.5222 20.9482 24.4171 20.9009 24.369 20.878C24.126 20.7626 23.8857 20.653 23.8751 20.653C23.8686 20.653 23.7339 20.5917 23.5758 20.5168C23.4178 20.4418 23.1965 20.3371 23.0841 20.2841C22.5015 20.0096 20.815 19.1183 20.4773 18.9066C20.3766 18.8435 20.2865 18.7919 20.277 18.7919C20.2413 18.7919 19.5161 18.3311 19.3901 18.2284C19.0691 17.9667 19.0758 17.8613 19.4007 18.0619ZM15.2349 20.0302C14.9624 20.4289 14.7177 20.806 14.7183 20.8266C14.7193 20.8606 15.0834 21.1288 15.2472 21.2162C15.4404 21.3192 15.4427 21.3312 15.3191 21.5988C15.2614 21.7238 15.2142 21.8377 15.2142 21.852C15.2142 21.8799 16.1659 22.3725 16.4617 22.4975C16.7786 22.6315 16.8751 22.5786 17.0466 22.1766C17.0895 22.076 17.1389 22.0731 17.2808 22.1632C17.5151 22.3119 18.215 22.5442 18.4286 22.5442C18.5316 22.5442 18.5481 22.5719 18.5154 22.6894C18.501 22.7408 18.4802 22.903 18.4689 23.0497L18.4487 23.3165L18.5324 23.3384C18.5785 23.3503 18.7739 23.3798 18.9666 23.4036C19.1593 23.4276 19.4156 23.4594 19.536 23.4744C19.6565 23.4894 19.9064 23.5024 20.0915 23.5033L20.428 23.5049L20.4639 23.3105C20.4836 23.2037 20.4996 23.0837 20.4996 23.0441C20.4996 22.9271 20.5517 22.9111 20.9815 22.895C21.4921 22.876 21.8339 22.8116 22.0654 22.6908C22.1785 22.6317 22.2292 22.6719 22.3549 22.9195C22.4218 23.0516 22.4971 23.1638 22.5221 23.1688C22.561 23.1767 23.0229 23.0378 23.2009 22.9648C23.2329 22.9517 23.325 22.9173 23.4053 22.8886C24.0928 22.6426 24.1883 22.5256 24.0045 22.1551C23.9181 21.9811 23.9267 21.9615 24.138 21.8502C24.244 21.7944 24.3361 21.7396 24.343 21.7283C24.3541 21.7097 23.3875 21.2063 23.1994 21.1329C23.1317 21.1064 23.0896 21.1176 22.9159 21.2083C21.8014 21.7903 19.8278 21.828 18.1051 21.3002C18.0168 21.2731 17.8948 21.2379 17.8341 21.2218C17.7732 21.2058 17.701 21.1804 17.6734 21.1655C17.6459 21.1504 17.5379 21.1085 17.4335 21.072C17.1286 20.9658 17.0886 20.9482 16.689 20.7427C16.2068 20.4948 15.9571 20.3293 15.6041 20.0235C15.3518 19.8048 15.3894 19.8041 15.2349 20.0302ZM28.5318 21.9964C28.501 22.1236 28.3421 22.4587 28.2678 22.5534C28.2179 22.6167 28.0006 22.8871 27.9415 22.9593C27.8739 23.0417 27.9031 23.098 28.0271 23.1244C28.0709 23.1338 28.179 23.1882 28.2673 23.2453C28.3558 23.3024 28.5311 23.4133 28.6573 23.4917C28.864 23.6202 29.2761 23.9302 29.51 24.133C29.5592 24.1756 29.6432 24.2441 29.697 24.2854C30.3388 24.7783 30.8074 25.227 31.0686 25.5987C31.2806 25.9006 31.4685 25.9083 31.7029 25.6247C31.9456 25.3309 32.0186 24.6388 31.8433 24.2933C31.8201 24.2476 31.8011 24.1995 31.801 24.1862C31.7996 24.0001 31.0727 23.2882 30.4867 22.8989C30.1151 22.6521 29.9716 22.5592 29.9026 22.5208C29.8626 22.4984 29.718 22.4145 29.5814 22.3342C29.3683 22.2089 29.0816 22.0638 28.7156 21.896C28.5806 21.8342 28.5696 21.8402 28.5318 21.9964ZM29.1491 22.5745C29.4174 22.8019 29.2544 23.1447 28.8781 23.1447C28.7241 23.1447 28.5302 22.9663 28.5302 22.8247C28.5302 22.5401 28.9217 22.3819 29.1491 22.5745ZM30.1923 23.2522C30.5384 23.3946 30.4674 23.8004 30.0834 23.8755C29.6741 23.9555 29.5136 23.3563 29.9124 23.2377C30.0445 23.1983 30.0636 23.1993 30.1923 23.2522ZM31.2272 24.1204C31.3639 24.1791 31.4344 24.2923 31.4286 24.4432C31.4163 24.7595 30.9548 24.8622 30.7499 24.5942C30.541 24.3212 30.8895 23.9754 31.2272 24.1204Z" fill="#F9F90B"/>
<path fill-rule="evenodd" clip-rule="evenodd" d="M0 7.51226V15.0245L7.94295 15.0169L15.8858 15.0093L15.8896 15.0769C15.8917 15.1142 15.9036 15.0558 15.9159 14.9473C15.9685 14.485 16.2019 14.0334 16.5046 13.808C16.7316 13.6391 16.7786 13.6775 16.9108 14.1389C16.9463 14.2628 16.9864 14.3843 17 14.409C17.0135 14.4339 17.0374 14.4879 17.053 14.5292C17.0916 14.6311 17.3697 15.0996 17.3916 15.0996C17.3976 15.0996 17.3949 15.0792 17.3856 15.0545C17.3626 14.9926 26.3248 14.9851 26.3512 15.047C26.3601 15.0677 26.3619 15.0372 26.3551 14.9794C26.3484 14.9217 26.3355 14.7731 26.3262 14.6492C26.3015 14.3165 26.1538 13.6365 26.0611 13.4289C26.0378 13.3769 26.0188 13.3272 26.0188 13.3185C26.0188 13.0325 25.0781 11.6055 24.5016 11.017C23.0562 9.54131 21.3291 8.71766 19.609 8.68355C18.7914 8.66747 18.8741 8.70529 18.8373 8.33001C18.8211 8.16498 18.7941 7.90258 18.7774 7.74691C18.7541 7.53054 18.7552 7.45837 18.782 7.44137C18.8518 7.39696 19.3138 7.37788 19.6473 7.40564C20.081 7.4416 20.0576 7.45421 20.0678 7.17931L20.0763 6.9494L20.3829 6.94004C20.7362 6.9294 21.2336 7.02041 21.5072 7.14601C21.5392 7.16069 21.6641 7.21216 21.7845 7.26027C22.0371 7.36111 22.0486 7.38482 21.9468 7.59137C21.855 7.77756 21.855 7.7749 21.9485 7.7749C22.1123 7.7749 22.7416 8.0624 22.9726 8.2427C23.1218 8.35915 23.1415 8.34643 23.2427 8.0668C23.3309 7.82359 23.8335 8.1097 24.7545 8.92733C25.1036 9.23715 25.0937 9.20801 24.9199 9.41722C24.8454 9.50673 24.7961 9.58976 24.8103 9.60156C24.8245 9.61347 24.915 9.6765 25.0113 9.74161C25.1077 9.80684 25.3519 10.0259 25.5538 10.2285C25.9794 10.6552 25.9392 10.6394 26.1022 10.4449C26.2528 10.265 26.2634 10.2694 26.4706 10.5967C26.7248 10.9982 26.8436 11.2554 27.0448 11.8404C27.2031 12.3003 27.2031 12.3002 26.8299 12.3521C26.651 12.377 26.6509 12.3775 26.755 12.6234C26.8038 12.7387 26.9139 13.0409 26.9998 13.2949C27.1863 13.847 27.1338 13.7887 27.394 13.732C27.8017 13.6431 27.7656 13.5918 27.8714 14.409C27.8939 14.5824 27.9217 14.7885 27.9332 14.8669L27.9541 15.0095H36.477H45V7.50475V0H22.5H0V7.51226ZM19.1123 9.73363C19.1388 9.82037 19.1718 9.9182 19.1854 9.95128C19.1991 9.98435 19.2786 10.2342 19.362 10.5066C19.4454 10.7791 19.5423 11.0897 19.5771 11.197L19.6406 11.3921L20.5739 11.4072L21.5072 11.4222L21.4195 11.4822C21.3714 11.5153 21.3122 11.5584 21.2881 11.5782C21.2641 11.598 21.1129 11.7117 20.9523 11.8309C20.0826 12.4766 20.0324 12.5179 20.0324 12.587C20.0324 12.6441 20.1234 12.9643 20.1792 13.1033C20.2851 13.3671 20.5712 14.3501 20.54 14.3428C20.5035 14.3343 20.2156 14.1228 19.4553 13.5461C19.0513 13.2396 19.0498 13.239 18.9323 13.3378C18.8869 13.376 18.6198 13.579 18.3387 13.7889C18.0577 13.999 17.7632 14.2205 17.6842 14.2814L17.5408 14.392L17.5616 14.303C17.5731 14.2541 17.6784 13.91 17.7956 13.5386C18.1501 12.4156 18.1189 12.5401 18.0568 12.4933C17.9796 12.4354 17.3484 11.9696 17.0121 11.7224C16.855 11.6068 16.6981 11.4891 16.6637 11.4607C16.6043 11.4118 16.6479 11.4091 17.5373 11.4082L18.4733 11.4072L18.5831 11.0394C18.6436 10.8373 18.7042 10.6447 18.718 10.6117C18.7317 10.5787 18.8106 10.3321 18.8931 10.0638C19.0654 9.50476 19.0495 9.52859 19.1123 9.73363ZM26.3783 15.3246C26.3784 15.4237 26.3839 15.4606 26.3904 15.4067C26.3969 15.3527 26.3968 15.2717 26.3901 15.2266C26.3834 15.1815 26.3781 15.2256 26.3783 15.3246ZM26.378 15.9701C26.378 16.0608 26.3835 16.0981 26.3901 16.0526C26.3969 16.0072 26.3969 15.9329 26.3901 15.8875C26.3835 15.8422 26.378 15.8793 26.378 15.9701ZM27.3694 16.7956C27.3698 16.8616 27.3757 16.8851 27.3827 16.8478C27.3897 16.8105 27.3895 16.7564 27.3822 16.7277C27.3748 16.699 27.3691 16.7295 27.3694 16.7956ZM25.8563 20.2103L25.7706 20.3078L25.8655 20.2197C25.9177 20.1712 25.9604 20.1273 25.9604 20.1221C25.9604 20.0989 25.9363 20.1193 25.8563 20.2103ZM19.996 21.6648C20.0321 21.672 20.0913 21.672 20.1274 21.6648C20.1635 21.6577 20.1339 21.6519 20.0617 21.6519C19.9893 21.6519 19.9599 21.6577 19.996 21.6648ZM20.9742 21.6643C21.0023 21.6719 21.0483 21.6719 21.0764 21.6643C21.1045 21.6568 21.0815 21.6506 21.0253 21.6506C20.9691 21.6506 20.9461 21.6568 20.9742 21.6643ZM27.6724 22.3104C27.6924 22.3435 27.771 22.3401 27.771 22.306C27.771 22.2905 27.7455 22.2797 27.7146 22.2821C27.6835 22.2846 27.6646 22.2973 27.6724 22.3104ZM24.0955 22.4518C24.0933 22.4918 24.069 22.5526 24.0415 22.5869C23.9928 22.6477 23.9932 22.6477 24.0586 22.5858C24.104 22.5429 24.1216 22.4991 24.1126 22.4507L24.0994 22.3792L24.0955 22.4518ZM27.9297 22.5818L27.844 22.6793L27.9388 22.5911C27.991 22.5427 28.0338 22.4987 28.0338 22.4935C28.0338 22.4704 28.0097 22.4908 27.9297 22.5818ZM28.8591 22.5057C28.9035 22.5126 28.9692 22.5125 29.0051 22.5053C29.041 22.4982 29.0047 22.4926 28.9244 22.4927C28.8441 22.493 28.8147 22.4989 28.8591 22.5057ZM20.6378 22.9262C20.6895 22.9328 20.7816 22.9329 20.8422 22.9264C20.9027 22.9198 20.8603 22.9145 20.7479 22.9143C20.6354 22.9141 20.5859 22.9195 20.6378 22.9262ZM18.4381 23.2117C18.4403 23.3106 18.4525 23.3403 18.4926 23.3439C18.5257 23.3469 18.529 23.3437 18.5015 23.3348C18.4764 23.3267 18.4538 23.2718 18.447 23.2026L18.4353 23.0842L18.4381 23.2117ZM20.448 23.4148C20.448 23.4726 20.4541 23.4962 20.4614 23.4673C20.4687 23.4384 20.4687 23.3912 20.4614 23.3623C20.4541 23.3334 20.448 23.357 20.448 23.4148ZM19.0614 23.436C19.0977 23.4431 19.1567 23.4431 19.1929 23.436C19.2291 23.4288 19.1995 23.423 19.1271 23.423C19.0549 23.423 19.0253 23.4288 19.0614 23.436ZM19.923 23.527C20.0153 23.533 20.1664 23.533 20.2588 23.527C20.3511 23.5211 20.2755 23.5162 20.0908 23.5162C19.9062 23.5162 19.8306 23.5211 19.923 23.527ZM31.3908 23.6324C31.5117 23.765 31.5379 23.7888 31.5379 23.7662C31.5379 23.7614 31.4756 23.6973 31.3992 23.6237L31.2606 23.4898L31.3908 23.6324ZM31.0053 24.0964C31.0417 24.1036 31.0942 24.1034 31.1222 24.0958C31.1501 24.0883 31.1204 24.0824 31.0562 24.0828C30.9918 24.0831 30.969 24.0892 31.0053 24.0964ZM31.9243 24.6156C31.9243 24.6733 31.9304 24.697 31.9377 24.6681C31.945 24.6392 31.945 24.5919 31.9377 24.5631C31.9304 24.5341 31.9243 24.5577 31.9243 24.6156ZM31.9243 25.0958C31.9243 25.1537 31.9304 25.1773 31.9377 25.1484C31.945 25.1194 31.945 25.0723 31.9377 25.0433C31.9304 25.0144 31.9243 25.038 31.9243 25.0958Z" fill="#EB1304"/>
</g>
<defs>
<clipPath id="clip0">
<rect width="45" height="30" fill="white"/>
</clipPath>
</defs>
</svg>
