<?xml version="1.0" encoding="UTF-8"?>
<svg xmlns="http://www.w3.org/2000/svg" xmlns:xlink="http://www.w3.org/1999/xlink" width="200pt" height="120pt" viewBox="0 0 200 120" version="1.1">
<g id="surface1">
<rect x="0" y="0" width="200" height="120" style="fill:rgb(80.784314%,6.666667%,14.901961%);fill-opacity:1;stroke:none;"/>
<path style="fill-rule:nonzero;fill:rgb(11.764706%,70.980392%,22.745098%);fill-opacity:1;stroke-width:8;stroke-linecap:butt;stroke-linejoin:miter;stroke:rgb(100%,100%,100%);stroke-opacity:1;stroke-miterlimit:4;" d="M -60 -36 L -60 36 L 60 -36 L 60 36 Z M -60 -36 " transform="matrix(2,0,0,2,100,60)"/>
<path style=" stroke:none;fill-rule:nonzero;fill:rgb(100%,100%,100%);fill-opacity:1;" d="M 134 60 C 134 78.777344 118.777344 94 100 94 C 81.222656 94 66 78.777344 66 60 C 66 41.222656 81.222656 26 100 26 C 118.777344 26 134 41.222656 134 60 Z M 134 60 "/>
<path style="fill-rule:nonzero;fill:rgb(80.784314%,6.666667%,14.901961%);fill-opacity:1;stroke-width:0.36;stroke-linecap:butt;stroke-linejoin:miter;stroke:rgb(11.764706%,70.980392%,22.745098%);stroke-opacity:1;stroke-miterlimit:4;" d="M 1.050781 -10.619141 L 3.150391 -10.619141 L 2.099609 -8.800781 L 3.150391 -6.980469 L 1.050781 -6.980469 L 0 -5.160156 L -1.050781 -6.980469 L -3.150391 -6.980469 L -2.099609 -8.800781 L -3.150391 -10.619141 L -1.050781 -10.619141 L 0 -12.439453 Z M 1.050781 -10.619141 " transform="matrix(2,0,0,2,100,60)"/>
<path style="fill-rule:nonzero;fill:rgb(80.784314%,6.666667%,14.901961%);fill-opacity:1;stroke-width:0.36;stroke-linecap:butt;stroke-linejoin:miter;stroke:rgb(11.764706%,70.980392%,22.745098%);stroke-opacity:1;stroke-miterlimit:4;" d="M 1.049687 -10.619922 L 3.149297 -10.619922 L 2.100469 -8.799609 L 3.149297 -6.979297 L 1.049687 -6.979297 L 0.000859375 -5.160938 L -1.049922 -6.979297 L -3.149531 -6.979297 L -2.100703 -8.799609 L -3.149531 -10.619922 L -1.049922 -10.619922 L 0.000859375 -12.440234 Z M 1.049687 -10.619922 " transform="matrix(2,0,0,2,84.76,86.4)"/>
<path style="fill-rule:nonzero;fill:rgb(80.784314%,6.666667%,14.901961%);fill-opacity:1;stroke-width:0.36;stroke-linecap:butt;stroke-linejoin:miter;stroke:rgb(11.764706%,70.980392%,22.745098%);stroke-opacity:1;stroke-miterlimit:4;" d="M 1.049922 -10.619922 L 3.149531 -10.619922 L 2.100703 -8.799609 L 3.149531 -6.979297 L 1.049922 -6.979297 L -0.000859375 -5.160938 L -1.049687 -6.979297 L -3.149297 -6.979297 L -2.100469 -8.799609 L -3.149297 -10.619922 L -1.049687 -10.619922 L -0.000859375 -12.440234 Z M 1.049922 -10.619922 " transform="matrix(2,0,0,2,115.24,86.4)"/>
</g>
</svg>
